<?xml version="1.0" encoding="utf-8"?>
<!-- Generator: Adobe Illustrator 23.1.0, SVG Export Plug-In . SVG Version: 6.00 Build 0)  -->
<svg version="1.1" id="Capa_1" xmlns="http://www.w3.org/2000/svg" xmlns:xlink="http://www.w3.org/1999/xlink" x="0px" y="0px"
	 viewBox="0 0 546.32 305.93" style="enable-background:new 0 0 546.32 305.93;" xml:space="preserve">
<style type="text/css">
	.st0{fill:none;stroke:#000000;stroke-miterlimit:10;}
</style>
<path class="st0" d="M528.83,248.91c0,0,16.97-47.28,16.97-49.36s-0.17-25.29-1.21-27.54c-1.04-2.25-6.75-7.79-7.27-8.66
	c-0.52-0.87,1.04-2.42,1.21-3.12c0.17-0.69,0.87-5.2-0.35-7.62s-4.16-2.6-5.02-3.81c-0.87-1.21-9.35-12.99-12.3-15.93
	c-2.94-2.94-20.18-20.87-50.32-33.17c-30.14-12.3-48.32-11.39-50.27-17.49C415.21,76.1,380,37,357.14,20.76
	C337.92,8.03,330.25,3.22,309.08,1.92c-21.17-1.3-72.23-2.08-107.95-0.78s-70.54,4.42-87.68,5.85S86.69,15.82,78.5,23.75
	S53.56,56.61,53.56,56.61s-10.13,0.65-13.51,1.69s-4.81,3.38-5.59,5.07s-7.92,16.11-8.18,17.41c-0.26,1.3,0,4.16,0,4.16
	s-3.38-0.65-5.33,1.82s-7.79,11.69-8.18,12.99s-0.84,3.57-0.58,4.35c-0.65,0.52-6.95,9.61-7.01,12.86c-0.06,3.25,0,31.15,0,31.15
	s1.62-16.8,3.53-15.93s5.89,3.64,9.18,19.92s13.68,55.77,13.68,55.77s-0.17,10.05,1.04,10.74c1.21,0.69,8.66,3.29,9.53,3.98
	c0.87,0.69,22.86,14.38,22.86,14.38s0-31.18,5.2-46.76c5.2-15.59,11.26-24.59,12.99-27.19c0.69-4.16,1.73-10.74,5.37-10.74
	c3.64,0,12.47,12.3,15.07,19.92c2.6,7.62,19.75,93.7,19.75,93.7s2.42,21.82,5.89,22.34c3.46,0.52,60.45,3.46,77.25,3.46
	s128.69-5.72,143.76-6.41s130.94-10.05,146.88-11.6c15.93-1.56,25.11-3.12,28.06-8.49c2.94-5.37,2.77-10.57,2.77-11.78
	S528.83,248.91,528.83,248.91z"/>
<path class="st0" d="M83.18,163c0,0,6.09-7.48,9.19-8.42"/>
<path class="st0" d="M169.95,290.48c0,0-8.14,14.02-19.57,14.54c-11.43,0.52-48.67,1.56-56.46-3.12
	c-7.79-4.68-19.57-15.07-24.08-36.55c-4.5-21.48-4.85-28.41-4.85-28.41"/>
<path class="st0" d="M123.36,265.88c0,0,36.72,4.98,41.66,5.35c4.94,0.37,90.67-2.08,101.32-2.67
	c10.65-0.6,180.82-11.51,188.88-12.03c8.05-0.52,66.25-7.01,67.55-7.01c1.3,0,5.71-1.28,7.62-4.95"/>
<path class="st0" d="M265.7,268.59c0,0,1.55-12.61,2.46-24.02c0.91-11.42-0.52-18.56,4.42-22.98c4.94-4.42,9.74-4.16,19.75-4.03
	s32.48-1.04,32.48-1.04s-0.65-10.39-0.65-11.17c0-0.78,0.13-2.86,2.73-2.99c2.6-0.13,85.09-4.81,85.87-4.81s4.03-1.17,4.29,2.86
	c0.26,4.03,0,9.74,0,9.74s39.75-2.73,41.57-1.82c1.82,0.91,3.77,2.73,3.38,9.61c-0.39,6.88-1.39,34.42-6.75,38.58"/>
<path class="st0" d="M5.17,148.11c0,0-4.44,26.33-4.61,52.48s3.98,37.07,6.58,37.58s41.05,2.08,45.55,1.73s5.61-2.88,6.1-6.81"/>
<path class="st0" d="M89.81,299.12c0,0,5.32,5.99,14.58,1.57s18.49-24.82,19.68-29.43"/>
<path class="st0" d="M7.14,238.17c0,0,7.19,2.12,10.31-30.22s2.34-43.1,1.88-49.15"/>
<path class="st0" d="M53.56,56.61c0,0-7.01,12.6-7.88,14.07l-0.3,0.37"/>
<path class="st0" d="M90.54,72.5l-0.43,27.89c0,0-6.93,3.9-9.27-1.13c-10.13-0.35-40.96-1.39-44.17-4.42
	c-3.2-3.03-5.11-8.23-4.68-13.34c0.43-5.11,3.9-10.22,10.83-10.39s22.78-0.52,24.85-0.43c2.08,0.09,7.19,3.2,8.66,7.01
	c1.47,3.81,2.77,6.93,4.85,6.84s3.81-0.52,4.59-2.08S88.46,73.11,90.54,72.5z"/>
<path class="st0" d="M80.84,99.26c0,0-3.03-2.68-3.12-6.84c-0.09-4.16,2.08-7.45,4.22-7.93"/>
<path class="st0" d="M103.62,172.18c0,0,13.04,4.25,26.9,6.84c1.71,0.32,3.43,0.61,5.15,0.87c15.59,2.34,32.74,3.12,54.17,2.34
	c21.43-0.78,90.8-2.25,92.01-2.25c1.21,0,5.54,0.35,2.77-3.81c-2.77-4.16-14.27-23.9-18.91-24.59s-87.61-1.04-93.5,0
	c-5.89,1.04-26.5,4.68-33.6,11.08c-7.1,6.41-7.72,8.43-7.91,16.16"/>
<path class="st0" d="M524.26,136.87c0,0-8.37-1.32-19.29-0.52s-50.01,5.22-53,6.13c-2.99,0.91-6.37,2.34-8.31,9.87
	s-5.72,18.19-2.73,18.32c2.99,0.13,92.87-6.92,96.32-8.01"/>
<path class="st0" d="M517.57,164.71c0,0,0.78-13.01,0-19.37s-2.21-14.16-5.72-18.19s-26.73-20.45-40.65-27.18"/>
<path class="st0" d="M267.51,152.48c0,0,0.21,0.73,5.06,0.82c4.85,0.09,76.9-3.81,94.83-4.33s77.82-3.28,80.92-4.8"/>
<path class="st0" d="M275.87,162.58c0,0,0.47,0.1,8.27,0c7.79-0.1,75.99-2.96,91.45-3.61c15.46-0.65,61.59-4.85,67.82-5.67"/>
<path class="st0" d="M281.66,171.5c0,0,67.81-2.13,87.17-2.91c19.36-0.78,66.33-5.43,72.01-5.96"/>
<path class="st0" d="M424.39,186.9c0,0-3.12-0.52-2.77,2.42c0.35,2.94,1.37,11.95,1.37,11.95s0.01,2.08,2.61,2.08
	c2.6,0,38.1-2.25,38.1-2.25s1.39,0.35,1.21-2.42c-0.17-2.77-1.56-11.81-1.56-11.81s0.52-2.22-3.81-2.22
	C455.22,184.65,424.39,186.9,424.39,186.9z"/>
<path class="st0" d="M315.62,192.62c0,0,2.42-0.17,2.6,2.25c0.17,2.42,0.69,12.47,0.69,12.47s0.52,1.39-1.82,1.56
	c-2.34,0.17-43.73,1.73-43.73,1.73s-3.29,0.52-3.29-1.91c0-2.42,0-12.47,0-12.47s0-2.25,2.6-2.25
	C275.26,194,315.62,192.62,315.62,192.62z"/>
<path class="st0" d="M251.79,227.95c0,0-69.89,2.08-71.71,2.34c-1.82,0.26-4.42,0.26-4.42,5.46s-1.82,24.16,10.65,24.68
	c12.47,0.52,65.47,0,65.47,0"/>
<path class="st0" d="M175.66,244.3c0,0,12.48,0.25,17.68,0.26c5.2,0.01,38.45,0.24,40.01-0.26"/>
<path class="st0" d="M485.35,212.36l41.57-3.12c0,0,5.62-1.04,4.5,5.72c-1.12,6.75-3.46,24.16-15.15,25.72s-35.59,3.62-35.59,3.62"
	/>
<path class="st0" d="M530.38,220.86c0,0-0.34,3.2-9.18,4.5c-8.83,1.3-32.68,2.6-32.68,2.6"/>
<path class="st0" d="M225.53,228.75c0,0,2.01,10.12-15.22,10.38"/>
<path class="st0" d="M226.83,244.57c0,0,0.15,11.45-17.78,11.45"/>
<path class="st0" d="M521.97,209.62c0,0-0.42,9.5-6.3,10.19c-5.89,0.69-19.75,1.05-19.75,1.05"/>
<path class="st0" d="M517.22,225.84c0,0-0.08,8.95-8.05,9.82s-15.24,1.47-15.24,1.47"/>
<path class="st0" d="M404.28,64.55c0,0,1.05-6.25,3.65-6.42s19.31-2.68,22.34-0.52c3.03,2.17,5.54,6.15,4.68,11.52
	c-0.87,5.37-4.5,12.56-14.68,13.08"/>
<path class="st0" d="M128.64,14.7c0,0-14.98-0.48-17.58,9.92c-2.6,10.39-7.45,26.67-8.66,34.99s-2.08,30.43-0.69,32.28
	s2.94,1.15,2.94,1.15S221.39,83.5,259.33,82.2s120.55-2.08,124.97-1.56s30.01,0.78,30.01,0.78s-45.99-46.76-56.9-55.73
	c-10.91-8.96-16.76-15.2-32.22-16.11s-60.27-1.43-101.32,0S135.27,14.09,128.64,14.7z"/>
<path class="st0" d="M104.66,93.03c0,0-0.17,5.02,3.81,7.1c3.98,2.08,34.81,21.65,46.59,33.08c11.78,11.43,15.59,15.93,17.15,18.36
	s11.28,28.94,11.62,30.84"/>
<polyline class="st0" points="23.06,174.48 37.8,177.38 69.81,191.38 "/>
<path class="st0" d="M12.19,104.09l24.75,9.37l39.49,14.03c0,0,15.24,8.31,17.67,14.55c2.42,6.24,10.38,22.62,12.2,30.97"/>
<path class="st0" d="M101,90.6c0,0-6.39,1.04-8.63,4.68c-2.24,3.63-10.23,19.05-11.79,21.13s-5.2,10.57-5.2,20.09
	s1.2,37.98,1.2,37.98"/>
<path class="st0" d="M90.54,72.5c0,0,9.61-41.14,11.34-43.91s1.91-8.83-0.17-9.87c-2.08-1.04-11.1-1.21-13.52,0
	c-2.42,1.21-5.76,3.29-6.25,3.98S51.66,65.46,48.88,70.67v0.3"/>
<path class="st0" d="M60.49,70.67c0,0,20.78-36.88,24.08-41.38c3.29-4.5,6.75-9.35,6.75-9.35s9.15-0.52,9.68,1.21
	c0.54,1.73,2.08,4.07,0.88,7.45"/>
<path class="st0" d="M57.72,70.79c0,0,27.88-46.85,30.47-49.77c-2.94,0.65-5.5,2.01-6.78,4.16S51.42,69.21,50.9,70.93"/>
<path class="st0" d="M37.46,72.5c0,0,1.38-4.68,2.59-5.54c1.21-0.87,8.02-0.52,8.02-0.52"/>
<line class="st0" x1="26.28" y1="84.93" x2="31.94" y2="85.32"/>
<path class="st0" d="M268.5,271.23c0,0-73.26,1.93-75.52,1.93c-2.25,0-5.2,2.08-4.85,4.33c0.35,2.25,0.87,6.24,10.22,6.58
	c9.35,0.35,80.71-1.56,80.71-1.56"/>
<line class="st0" x1="221.22" y1="274.2" x2="221.22" y2="281.3"/>
<path class="st0" d="M454.35,259.47c0,0,54.56-5.89,56.46-5.72s5.2-1.04,5.37,2.86s-0.35,7.02-5.37,8.06
	c-5.02,1.04-56.46,6.6-56.46,6.6"/>
<line class="st0" x1="490.38" y1="257.92" x2="490.38" y2="265.36"/>
<path class="st0" d="M118.42,241.31c0,0-5.43,47.44-26.05,48.13s-26.51-41.68-27.38-51.24"/>
<path class="st0" d="M101.41,167.2c0,0-3.75-2.96-8.55-2.64s-12.67,2.49-22.67,25.63"/>
<path class="st0" d="M2.68,228.36c0,0,0.87,2.32,1.91,0.76c1.04-1.56,6.69-9.09,8.86-44.82s0.23-45.89-1.27-46.59
	s-4.34-2.1-7.14,11.14"/>
</svg>
